<svg width="283" height="192" viewBox="0 0 283 192" fill="none" xmlns="http://www.w3.org/2000/svg">
<g filter="url(#filter0_d)">
<path d="M279 172.492C279 162.449 274.844 154.308 269.717 154.308C266.495 154.308 263.657 157.525 261.992 162.408C261.43 162.122 260.827 161.974 260.218 161.972C258.666 161.972 257.232 162.947 256.062 164.597C254.561 158.508 251.38 154.308 247.697 154.308C244.254 154.308 241.251 157.983 239.648 163.437C238.758 162.516 237.636 161.998 236.471 161.972C232.537 161.972 229.347 168.22 229.347 175.927C229.331 178.497 229.712 181.046 230.47 183.442H277.128C278.303 180.396 279 176.604 279 172.492Z" fill="#FD5800"/>
<path d="M245.72 67.4855C238.409 48.0946 224.103 31.5527 206.82 28.8566C202.25 28.1437 197.479 28.4296 193.239 30.6379C187.674 33.5367 183.572 39.3878 179.426 44.7852C170.649 56.2101 160.827 66.3561 150.154 75.0224C144.887 79.2985 139.237 83.2881 132.983 84.3822C120.443 86.5758 108.04 76.0909 102.322 62.2331C98.7493 53.5765 97.0985 43.413 94.2107 34.4089C90.8849 34.4011 86.9225 34.4026 82.6595 34.4267C70.876 34.4933 61.2848 34.7067 61.2848 34.7067C61.2848 34.7067 72.6855 16.1902 82.6167 23.0504C85.7904 25.2428 89.1146 27.1992 92.1695 28.8472C90.434 24.7538 88.2448 21.0708 85.2333 18.1096C79.295 12.2706 71.2522 10.6327 63.6486 11.0676C55.6643 11.5242 47.6065 14.1452 41.1186 19.8696C29.5608 30.0671 24.7879 48.0166 20.703 64.7419L30.5769 70.8113C34.8122 66.3217 41.0054 61.8805 46.7139 65.8238C56.6451 72.6841 68.0536 77.239 68.0536 77.239C68.0536 77.239 58.5401 77.1335 46.7567 77.2C44.7776 77.2112 42.8628 77.2266 41.0424 77.2444L150.667 144.629C186.824 145.254 214.087 142.856 248.444 144.629C250.236 144.722 254.267 133.205 254.28 130.174C254.375 108.812 253.03 86.8763 245.72 67.4855ZM210.611 73.2973C198.827 73.3639 189.236 73.5774 189.236 73.5774C189.236 73.5774 200.637 55.0608 210.568 61.9211C220.499 68.7813 231.908 73.3363 231.908 73.3363C231.908 73.3363 222.394 73.2308 210.611 73.2974L210.611 73.2973Z" fill="#F2F2F2"/>
<path opacity="0.3" d="M241.315 136.668C241.315 129.365 237.628 123.446 233.079 123.446C230.22 123.446 227.703 125.785 226.226 129.336C225.719 129.126 225.187 129.019 224.652 129.018C223.268 129.047 221.947 129.731 220.964 130.927C219.633 126.5 216.811 123.446 213.544 123.446C210.489 123.446 207.825 126.118 206.403 130.084C205.569 129.397 204.589 129.027 203.584 129.018C200.094 129.018 197.264 133.561 197.264 139.165C197.254 141.056 197.594 142.924 198.26 144.629H239.654C240.764 142.198 241.336 139.454 241.315 136.668Z" fill="#FD5800"/>
<path d="M279 183.968H24.8796V183.344H278.745L279 183.968Z" fill="#2F2E41"/>
<path d="M258.12 145.254H4V144.629H257.866L258.12 145.254Z" fill="#2F2E41"/>
<path d="M111.869 87.7748C111.869 87.7748 113.469 73.3838 116.137 77.3086C118.804 81.2335 116.137 87.1207 116.137 87.1207L114.003 90.3914L111.869 88.429V87.7748Z" fill="#FFB8B8"/>
<path d="M105.467 92.3538C105.467 92.3538 110.802 85.1583 111.869 86.4666C112.936 87.7749 116.137 88.429 115.603 91.0455C115.07 93.6621 103.866 102.166 103.866 102.166L105.467 92.3538Z" fill="#FD5800"/>
<path opacity="0.1" d="M105.467 92.3538C105.467 92.3538 110.802 85.1583 111.869 86.4666C112.936 87.7749 116.137 88.429 115.603 91.0455C115.07 93.6621 103.866 102.166 103.866 102.166L105.467 92.3538Z" fill="black"/>
<path d="M75.0579 91.6997V96.9328C75.0579 96.9328 74.5244 108.707 77.7253 108.053C80.9262 107.399 79.3258 97.5869 79.3258 97.5869L78.7923 91.6997H75.0579Z" fill="#FFB8B8"/>
<path d="M76.6584 129.64C76.6584 129.64 71.857 138.798 70.2565 139.452C68.656 140.106 60.1202 145.993 59.0532 151.88L51.5843 163.655L55.3188 169.542C55.3188 169.542 72.3904 147.301 77.1918 145.339C81.9932 143.377 86.7947 133.565 86.7947 133.565L76.6584 129.64Z" fill="#FFB8B8"/>
<path d="M114.536 114.595C114.536 114.595 124.672 116.557 123.072 124.407C121.471 132.256 106 148.61 106 148.61L105.467 152.535L99.5984 153.843L96.931 150.572L97.4644 148.61C97.4644 148.61 103.866 141.414 104.4 138.798C104.933 136.181 110.802 125.715 113.469 125.061L109.735 122.444L114.536 114.595Z" fill="#FFB8B8"/>
<path d="M53.1848 163.655C53.1848 163.655 55.3188 159.73 52.1178 160.384C48.9169 161.038 46.7829 161.693 46.7829 164.309C46.7829 166.926 49.4504 185.241 52.6513 183.933C55.8523 182.625 53.1848 176.738 53.1848 176.738C53.1848 176.738 54.7853 171.505 55.8523 170.85C56.9192 170.196 56.9192 166.926 55.8523 166.926C54.7853 166.926 52.6513 164.963 53.1848 163.655Z" fill="#2F2E41"/>
<path d="M98.5314 149.264C98.5314 149.264 98.5314 145.993 96.3975 149.264C94.2635 152.535 93.1965 155.151 95.3305 157.114C97.4644 159.076 104.933 163.655 104.933 163.655C104.933 163.655 112.936 165.617 111.869 161.038C111.869 161.038 106.534 157.768 106.534 155.151C106.534 152.535 106.534 147.956 104.933 149.264C103.333 150.572 98.5314 151.226 98.5314 149.264Z" fill="#2F2E41"/>
<path d="M88.3951 100.204C88.3951 100.204 80.9263 101.512 81.4598 114.595C81.4598 114.595 71.8569 126.369 74.5244 130.294C77.1918 134.219 83.0602 141.414 85.1942 139.452C87.3281 137.489 93.73 122.444 93.73 122.444C93.73 122.444 108.668 128.986 111.335 125.715C114.003 122.444 116.67 114.595 116.67 114.595L103.333 106.091L88.3951 100.204Z" fill="#2F2E41"/>
<path d="M109.201 62.9176C112.737 62.9176 115.603 59.4032 115.603 55.068C115.603 50.7327 112.737 47.2183 109.201 47.2183C105.666 47.2183 102.799 50.7327 102.799 55.068C102.799 59.4032 105.666 62.9176 109.201 62.9176Z" fill="#FFB8B8"/>
<path d="M104.4 55.7221C104.4 55.7221 100.665 62.9176 99.5984 63.5718C98.5314 64.2259 107.067 70.7673 107.067 70.7673C107.067 70.7673 107.067 62.2635 109.735 60.3011L104.4 55.7221Z" fill="#FFB8B8"/>
<path d="M103.866 62.9176C103.866 62.9176 95.3305 59.6469 93.73 64.88C92.1295 70.1132 88.3951 79.9252 88.9286 86.4666C89.4621 93.008 90.5291 91.6997 88.9286 93.6621C87.3281 95.6245 86.2611 94.3163 86.7946 96.9328C87.3281 99.5494 87.8616 99.5494 87.3281 100.858C86.7946 102.166 93.73 106.745 99.5984 107.399L105.467 108.053C105.467 108.053 105.467 96.2787 106.534 93.6621C107.601 91.0456 109.735 85.8125 109.735 83.8501V78.6577C109.735 75.2017 108.999 71.8055 107.601 68.8049C107.601 68.8049 104.4 62.9176 103.866 62.9176Z" fill="#FD5800"/>
<path d="M97.4644 65.5342C97.4644 65.5342 77.7253 67.4966 75.5914 74.038C73.4574 80.5794 72.3904 93.6621 74.5244 93.6621C76.6584 93.6621 79.3258 94.9704 79.8593 93.6621C80.3928 92.3539 82.5267 79.2711 83.0602 79.2711C83.5937 79.2711 99.5984 77.3087 99.5984 77.3087C99.5984 77.3087 106.534 66.8425 97.4644 65.5342Z" fill="#FD5800"/>
<path d="M109.458 53.1219C109.458 53.1219 111.157 49.5019 113.281 52.6462C115.404 55.7905 118.859 50.0123 118.329 48.7794C117.798 47.5464 115.926 48.8348 112.716 47.5484C109.507 46.2619 103.324 43.6412 102.289 52.1901C101.253 60.7391 103.719 59.8429 103.719 59.8429C103.719 59.8429 104.85 52.2676 105.871 54.4435L106.893 56.6195L107.779 56.8869L109.458 53.1219Z" fill="#2F2E41"/>
<path d="M169.842 33.091C174.156 33.091 177.653 28.8032 177.653 23.514C177.653 18.2248 174.156 13.937 169.842 13.937C165.529 13.937 162.032 18.2248 162.032 23.514C162.032 28.8032 165.529 33.091 169.842 33.091Z" fill="#2F2E41"/>
<path d="M167.346 30.6026C167.346 30.6026 167.75 39.5233 166.942 39.5233C166.133 39.5233 171.994 43.7358 171.994 43.7358L175.632 41.2578V38.2843C175.632 38.2843 170.781 37.5409 172.802 31.0982C174.823 24.6556 167.346 30.6026 167.346 30.6026Z" fill="#9F616A"/>
<path d="M150.37 128.481L149.764 135.915L151.785 136.659L153.401 134.676L154.008 128.481H150.37Z" fill="#9F616A"/>
<path d="M179.471 132.694L180.482 137.402L183.311 139.632L186.343 137.65L182.907 130.712L179.471 132.694Z" fill="#9F616A"/>
<path d="M169.266 34.4435C172.502 34.4435 175.126 31.2262 175.126 27.2574C175.126 23.2887 172.502 20.0714 169.266 20.0714C166.029 20.0714 163.405 23.2887 163.405 27.2574C163.405 31.2262 166.029 34.4435 169.266 34.4435Z" fill="#9F616A"/>
<path d="M165.729 54.1432L164.314 53.3998C164.314 53.3998 161.889 51.6652 161.687 48.1961C161.485 44.727 163.708 40.2667 163.708 40.2667L166.942 39.0277L170.741 42.819L170.781 48.9395L165.729 54.1432Z" fill="#9F616A"/>
<path d="M164.314 40.7622L163.506 40.2666C163.506 40.2666 159.464 40.0188 159.06 45.9659C158.656 51.913 157.241 61.8248 157.241 61.8248C157.241 61.8248 154.008 68.763 154.21 76.1969L152.593 82.6395C152.593 82.6395 150.37 92.0557 152.997 92.0557C155.625 92.0557 155.422 81.8961 155.422 81.8961C155.422 81.8961 160.273 67.5241 160.677 65.0461C161.081 62.5682 164.517 50.9218 163.506 47.7005C162.496 44.4791 164.314 40.7622 164.314 40.7622Z" fill="#9F616A"/>
<path d="M167.346 56.3733V59.099C167.346 59.099 168.76 61.0814 168.154 62.3204C167.548 63.5593 166.942 66.0373 166.942 66.0373L169.771 71.4888L179.269 72.4799L181.158 56.9631L167.346 56.3733Z" fill="#9F616A"/>
<path d="M176.238 39.0277L177.855 38.0365C177.855 38.0365 181.29 35.063 184.119 34.5674L192.809 27.3813L198.468 10.7791C198.468 10.7791 198.266 1.85845 199.883 2.84963C201.499 3.84081 201.297 11.5224 201.297 11.5224C201.297 11.5224 198.266 26.8857 195.639 31.0982C193.011 35.3107 183.513 42.249 183.513 42.249C183.513 42.249 180.886 45.9659 181.088 47.7005C181.29 49.435 176.238 39.0277 176.238 39.0277Z" fill="#9F616A"/>
<path d="M168.76 66.0373C168.76 66.0373 166.537 64.3027 165.123 67.2763C163.708 70.2498 161.081 70.9932 159.464 79.9138C157.848 88.8344 154.008 102.959 152.997 103.95C151.987 104.941 147.743 115.348 150.168 129.968H154.21L157.645 108.906C157.645 108.906 168.76 92.0557 169.569 85.1175L173.206 111.136C173.206 111.136 173.409 121.048 176.44 125.756L179.673 135.172L183.917 132.694L179.067 108.906C179.067 108.906 181.492 84.8697 179.875 78.1792L179.643 69.4079C179.643 69.4079 173.004 69.7542 168.76 66.0373Z" fill="#2F2E41"/>
<path d="M151.785 134.676H149.36C148.956 134.676 145.722 137.898 147.137 139.632C148.551 141.367 150.774 144.588 150.774 144.588C150.774 144.588 158.656 145.817 158.858 144.083C159.06 142.348 155.422 138.641 155.422 138.641L154.412 134.676C154.412 134.676 152.391 131.951 151.785 134.676Z" fill="#2F2E41"/>
<path d="M183.917 137.154C183.917 137.154 180.482 136.907 179.876 136.659C179.269 136.411 178.057 143.101 179.876 143.597C181.694 144.093 189.172 144.836 189.172 144.836C189.172 144.836 195.032 144.588 194.628 142.606C194.224 140.624 186.342 136.659 186.342 136.659C186.342 136.659 185.332 134.181 183.917 137.154Z" fill="#2F2E41"/>
<path d="M167.952 38.7799L166.942 38.0365L165.729 39.2755C165.729 39.2755 169.367 42.249 168.558 44.9748C167.75 47.7005 164.314 53.3998 164.314 53.3998C164.314 53.3998 167.346 57.6123 167.346 59.0991C167.346 59.0991 175.227 55.6299 181.088 59.0991C181.088 59.0991 181.088 54.1432 181.896 53.152C182.705 52.1608 183.109 48.6917 181.088 45.7182C179.664 43.5301 178.381 41.2105 177.248 38.7799L175.227 37.2931L174.187 37.698C174.187 37.698 176.238 40.5145 174.217 40.7623C172.196 41.0101 168.963 40.2667 167.952 38.7799Z" fill="#FD5800"/>
<path d="M175.551 7.18604C174.864 8.12576 173.924 8.72975 172.903 8.88686C171.137 9.1961 172.525 12.5978 172.525 12.5978C172.525 12.5978 172.02 11.3608 173.029 10.2784C174.038 9.1961 175.551 8.57762 175.551 7.18604Z" fill="#2F2E41"/>
<path d="M172.147 15.978C173.349 15.978 174.324 14.7831 174.324 13.309C174.324 11.835 173.349 10.64 172.147 10.64C170.945 10.64 169.971 11.835 169.971 13.309C169.971 14.7831 170.945 15.978 172.147 15.978Z" fill="#2F2E41"/>
<path d="M174.689 15.9371C173.007 14.8601 170.114 14.0131 168.577 14.0736L168.966 12.2509C170.327 13.3845 173.204 14.2474 175.077 14.1145L174.689 15.9371Z" fill="#FD5800"/>
<path d="M171.214 16.0975C171.214 16.0975 168.564 20.2751 163.265 21.2034C157.965 22.1317 162.129 32.3434 162.129 32.3434C162.129 32.3434 160.615 28.6301 163.643 25.3809C166.672 22.1317 171.214 20.2751 171.214 16.0975Z" fill="#2F2E41"/>
<path d="M171.416 15.8497C171.416 15.8497 172.931 22.3481 175.202 23.2764C177.473 24.2048 176.338 33.9523 172.552 34.8806C172.552 34.8806 175.77 29.5427 173.877 25.3652C171.984 21.1877 170.849 17.9385 171.416 15.8497Z" fill="#2F2E41"/>
<path d="M207.057 4.9559H193.113V6.93826H207.057V4.9559Z" fill="#2F2E41"/>
<path d="M207.057 11.8941C207.727 11.8941 208.269 9.23155 208.269 5.94707C208.269 2.66259 207.727 0 207.057 0C206.387 0 205.844 2.66259 205.844 5.94707C205.844 9.23155 206.387 11.8941 207.057 11.8941Z" fill="#2F2E41"/>
<path d="M193.113 11.8941C193.782 11.8941 194.325 9.23155 194.325 5.94707C194.325 2.66259 193.782 0 193.113 0C192.443 0 191.9 2.66259 191.9 5.94707C191.9 9.23155 192.443 11.8941 193.113 11.8941Z" fill="#2F2E41"/>
<path d="M214.13 138.274H200.186V140.257H214.13V138.274Z" fill="#2F2E41"/>
<path d="M214.13 145.212C214.8 145.212 215.343 142.55 215.343 139.265C215.343 135.981 214.8 133.318 214.13 133.318C213.46 133.318 212.917 135.981 212.917 139.265C212.917 142.55 213.46 145.212 214.13 145.212Z" fill="#2F2E41"/>
<path d="M200.186 145.212C200.855 145.212 201.398 142.55 201.398 139.265C201.398 135.981 200.855 133.318 200.186 133.318C199.516 133.318 198.973 135.981 198.973 139.265C198.973 142.55 199.516 145.212 200.186 145.212Z" fill="#2F2E41"/>
<path opacity="0.3" d="M53.3981 136.668C53.3981 129.365 49.7109 123.446 45.1625 123.446C42.3037 123.446 39.786 125.785 38.3093 129.336C37.8022 129.126 37.2706 129.019 36.7354 129.018C35.3513 129.047 34.0299 129.731 33.0477 130.927C31.7166 126.5 28.894 123.446 25.6269 123.446C22.5722 123.446 19.908 126.118 18.4862 130.084C17.6522 129.397 16.672 129.027 15.6676 129.018C12.177 129.018 9.34722 133.561 9.34722 139.165C9.337 141.056 9.67751 142.924 10.343 144.629H51.7372C52.8472 142.198 53.4198 139.454 53.3981 136.668Z" fill="#FD5800"/>
</g>
<defs>
<filter id="filter0_d" x="0" y="0" width="283" height="192" filterUnits="userSpaceOnUse" color-interpolation-filters="sRGB">
<feFlood flood-opacity="0" result="BackgroundImageFix"/>
<feColorMatrix in="SourceAlpha" type="matrix" values="0 0 0 0 0 0 0 0 0 0 0 0 0 0 0 0 0 0 127 0"/>
<feOffset dy="4"/>
<feGaussianBlur stdDeviation="2"/>
<feColorMatrix type="matrix" values="0 0 0 0 0 0 0 0 0 0 0 0 0 0 0 0 0 0 0.25 0"/>
<feBlend mode="normal" in2="BackgroundImageFix" result="effect1_dropShadow"/>
<feBlend mode="normal" in="SourceGraphic" in2="effect1_dropShadow" result="shape"/>
</filter>
</defs>
</svg>
